<svg t="1683894765504" class="icon" viewBox="0 0 1834 1024" version="1.1"
    xmlns="http://www.w3.org/2000/svg" p-id="5746" width="200" height="200">
    <path
        d="M0.582861 225.985946l197.506386 0 0 208.754464-38.887219 34.792448 38.887219 32.745779 0 154.519236-69.587763 67.538227-46.050712 0 0 35.815717-81.867981 37.862298L0.582791 225.985918zM82.450739 434.740429l33.770522 0 0-141.216255-33.770522 0L82.450739 434.740382zM82.450739 502.278554l0 154.519236 33.770522 0 0-154.519236L82.450768 502.278554zM210.369434 225.985946l355.102155 0-26.607104 70.608077-5.116746 0 0 427.741991-77.774541 73.678029-63.447647 0 0-69.584821 57.307552 0 0-431.835216-239.463701 0L210.369402 225.985918zM230.836429 350.829261l198.529735 0 0 313.131697-70.611046 65.491558-127.918644 0L230.836474 350.829274zM308.61097 664.984269l42.980664 0 0-248.663406-42.980664 0L308.61097 664.984277zM641.199411 734.569062l218.996718 0 0-51.16531-212.856623 0 0-63.444984 212.856623 0 0-62.421678-212.856623 0 0-331.551208 532.141558 0 0 257.873162-94.148096 73.678029-124.848596 0 0 62.421678 224.113464 0-31.723827 63.444992-192.38964 0 0 51.16531 234.346955 0-28.653773 63.444992-524.978114 0L641.199437 734.569098zM860.196147 288.407552l-116.661803 0 0 72.65474 116.661803 0L860.196147 288.407596zM860.196147 422.460723l-116.661803 0 0 73.678046 116.661803 0L860.196147 422.460708zM1083.286221 288.407552l-122.801898 0 0 72.65474 116.661803 0-27.630387 61.398323-89.031376 0 0 73.678046 122.801898 0L1083.286261 288.407596zM1271.582515 225.985946l561.818683 0-37.863936 75.724698-523.954765 0L1271.582498 225.985918zM1830.331085 798.014054l-63.447654-251.733299-101.311566 0 42.980659 176.008704-319.284935 0 94.148096-213.871002 312.121491 0 35.817267-75.724698-559.771985 0 0 75.724659 106.428312 0-102.334874 222.057472 0 67.538209 423.666548 0 16.373555-47.072051 11.256832 47.072051L1830.331116 798.0141z"
        p-id="5747" fill="#ffffff"></path>
</svg>